<svg width="25" height="25" viewBox="0 0 25 25" fill="none" xmlns="http://www.w3.org/2000/svg">
<path d="M18.75 13.2812L20.2438 16.1742L23.4375 16.6383L21.0938 18.75L21.6961 21.875L18.75 20.1172L15.8039 21.875L16.4062 18.75L14.0625 16.6383L17.3438 16.1742L18.75 13.2812ZM4.6875 12.5H9.375V14.0625H4.6875V12.5ZM4.6875 9.375H12.5V10.9375H4.6875V9.375ZM4.6875 6.25H12.5V7.8125H4.6875V6.25Z" fill="#1776E0"/>
<path d="M12.5 20.3125H3.125V4.6875H21.875V12.5H23.4375V4.6875C23.4375 4.2731 23.2729 3.87567 22.9799 3.58265C22.6868 3.28962 22.2894 3.125 21.875 3.125H3.125C2.7106 3.125 2.31317 3.28962 2.02015 3.58265C1.72712 3.87567 1.5625 4.2731 1.5625 4.6875V20.3125C1.5625 20.7269 1.72712 21.1243 2.02015 21.4174C2.31317 21.7104 2.7106 21.875 3.125 21.875H12.5V20.3125Z" fill="#1776E0"/>
</svg>
