<svg width="26" height="26" viewBox="0 0 26 26" fill="none" xmlns="http://www.w3.org/2000/svg">
<g clip-path="url(#clip0_887_2499)">
<path d="M23.111 4.33398H2.88878C2.50569 4.33398 2.13829 4.48617 1.8674 4.75705C1.59652 5.02794 1.44434 5.39534 1.44434 5.77843V20.2229C1.44434 20.606 1.59652 20.9734 1.8674 21.2443C2.13829 21.5151 2.50569 21.6673 2.88878 21.6673H13.7221L14.1338 21.1618L14.8054 20.3384L14.7404 20.2229H2.88878V5.77843H23.111V11.9607C23.6598 12.3157 24.1475 12.7572 24.5554 13.2679V5.77843C24.5554 5.39534 24.4033 5.02794 24.1324 4.75705C23.8615 4.48617 23.4941 4.33398 23.111 4.33398Z" fill="#1776E0"/>
<path d="M5.05566 8.66602H17.3334V9.82157H5.05566V8.66602Z" fill="#1776E0"/>
<path d="M5.05566 11.5547H13.0001V12.7102H5.05566V11.5547Z" fill="#1776E0"/>
<path d="M5.05566 16.6113H12.2779V17.7669H5.05566V16.6113Z" fill="#1776E0"/>
<path d="M19.832 12.4435C18.9078 12.4362 18.0028 12.7078 17.2355 13.2229C16.4681 13.738 15.8739 14.4726 15.5307 15.3308C15.1874 16.1889 15.111 17.1306 15.3115 18.0329C15.5119 18.9351 15.9799 19.7559 16.6542 20.3879L15.2531 22.0996L15.9031 24.7068L18.5464 21.4857C19.3831 21.7331 20.2736 21.7331 21.1103 21.4857L23.7536 24.7068L24.4036 22.0996L23.0025 20.3879C23.6768 19.7559 24.1448 18.9351 24.3452 18.0329C24.5457 17.1306 24.4693 16.1889 24.126 15.3308C23.7828 14.4726 23.1886 13.738 22.4212 13.2229C21.6539 12.7078 20.7489 12.4362 19.8247 12.4435H19.832ZM19.832 20.1568C19.2182 20.1483 18.6207 19.9585 18.1146 19.6113C17.6084 19.2641 17.2162 18.775 16.9872 18.2055C16.7582 17.6361 16.7027 17.0116 16.8277 16.4107C16.9527 15.8097 17.2525 15.2591 17.6895 14.8281C18.1265 14.3971 18.6812 14.1049 19.2838 13.9883C19.8864 13.8717 20.51 13.9358 21.0763 14.1726C21.6426 14.4094 22.1262 14.8084 22.4663 15.3193C22.8065 15.8302 22.988 16.4303 22.9881 17.0441C22.9804 17.8748 22.6441 18.6686 22.0526 19.252C21.4611 19.8354 20.6627 20.1607 19.832 20.1568Z" fill="#1776E0"/>
</g>
<defs>
<clipPath id="clip0_887_2499">
<rect width="26" height="26" fill="white"/>
</clipPath>
</defs>
</svg>
