<svg width="102" height="102" viewBox="0 0 102 102" fill="none" xmlns="http://www.w3.org/2000/svg">
<rect width="102" height="102" rx="11.6571" fill="#C6E3FF"/>
<path d="M52.0923 49.5421C52.0923 49.2522 51.9772 48.9743 51.7722 48.7693C51.5673 48.5644 51.2893 48.4492 50.9994 48.4492C50.7096 48.4492 50.4316 48.5644 50.2267 48.7693C50.0217 48.9743 49.9066 49.2522 49.9066 49.5421V52.8206H46.628C46.3382 52.8206 46.0602 52.9358 45.8552 53.1407C45.6503 53.3457 45.5352 53.6237 45.5352 53.9135C45.5352 54.2033 45.6503 54.4813 45.8552 54.6863C46.0602 54.8912 46.3382 55.0064 46.628 55.0064H49.9066V58.2849C49.9066 58.5748 50.0217 58.8527 50.2267 59.0577C50.4316 59.2626 50.7096 59.3778 50.9994 59.3778C51.2893 59.3778 51.5673 59.2626 51.7722 59.0577C51.9772 58.8527 52.0923 58.5748 52.0923 58.2849V55.0064H55.3709C55.6607 55.0064 55.9387 54.8912 56.1436 54.6863C56.3486 54.4813 56.4637 54.2033 56.4637 53.9135C56.4637 53.6237 56.3486 53.3457 56.1436 53.1407C55.9387 52.9358 55.6607 52.8206 55.3709 52.8206H52.0923V49.5421Z" fill="#1F86D0"/>
<path fill-rule="evenodd" clip-rule="evenodd" d="M50.9973 35.334C49.9656 35.334 49.0287 35.6298 48.0101 36.1238C47.028 36.6017 45.8915 37.307 44.4737 38.1871L41.4617 40.0566C40.1212 40.8901 39.0443 41.5574 38.2167 42.1913C37.3584 42.847 36.6998 43.5173 36.2233 44.3872C35.7483 45.2542 35.5356 46.178 35.4321 47.2694C35.333 48.3259 35.333 49.6198 35.333 51.2416V53.592C35.333 56.3664 35.333 58.5565 35.556 60.2686C35.7833 62.0245 36.2641 63.4423 37.3482 64.5628C38.4367 65.6892 39.821 66.1933 41.5375 66.4309C43.1987 66.6625 45.3232 66.6625 47.9985 66.6625H53.9961C56.6714 66.6625 58.7959 66.6625 60.4571 66.4309C62.1721 66.1933 63.5578 65.6892 64.6478 64.5628C65.7304 63.4423 66.2113 62.0245 66.4401 60.2686C66.6616 58.5565 66.6616 56.3664 66.6616 53.592V51.2416C66.6616 49.6198 66.6616 48.3273 66.5625 47.2694C66.4605 46.1766 66.2463 45.2542 65.7712 44.3872C65.2948 43.5173 64.6347 42.8485 63.7779 42.1913C62.9502 41.556 61.8748 40.8901 60.5328 40.0566L57.5209 38.1871C56.1031 37.307 54.9665 36.6017 53.983 36.1238C52.9673 35.6283 52.0304 35.334 50.9973 35.334ZM45.5767 40.0755C47.0557 39.1575 48.0976 38.5135 48.9675 38.0894C49.8141 37.6771 50.4144 37.5197 50.9973 37.5197C51.5801 37.5197 52.1805 37.6771 53.0271 38.0894C53.8985 38.512 54.9389 39.1575 56.4179 40.0755L59.3321 41.8838C60.7324 42.7538 61.716 43.3643 62.4504 43.9268C63.163 44.4732 63.5724 44.9234 63.8536 45.4363C64.1349 45.9507 64.2995 46.5525 64.3855 47.4734C64.4744 48.4177 64.4758 49.6081 64.4758 51.2955V53.5118C64.4758 56.3824 64.4729 58.4311 64.2718 59.9859C64.0737 61.513 63.6992 62.3989 63.077 63.0445C62.4577 63.6841 61.6155 64.0645 60.1569 64.267C58.6618 64.4739 56.6903 64.4768 53.9116 64.4768H48.083C45.3028 64.4768 43.3327 64.4739 41.8377 64.267C40.3791 64.063 39.5369 63.6841 38.919 63.043C38.2954 62.3989 37.9209 61.513 37.7242 59.9859C37.5202 58.4311 37.5187 56.3839 37.5187 53.5118V51.2955C37.5187 49.6081 37.5187 48.4177 37.6091 47.4734C37.695 46.5525 37.8597 45.9507 38.1409 45.4363C38.4221 44.9234 38.8316 44.4732 39.5456 43.9268C40.2785 43.3643 41.2621 42.7538 42.6624 41.8838L45.5767 40.0755Z" fill="#1F86D0"/>
</svg>
