<svg width="102" height="102" viewBox="0 0 102 102" fill="none" xmlns="http://www.w3.org/2000/svg">
<rect width="102" height="102" rx="11.6571" fill="#C6E3FF"/>
<path d="M60.6515 61.9294C58.1217 61.9294 55.6223 61.3781 53.1532 60.2755C50.6842 59.173 48.4378 57.6094 46.414 55.5847C44.3902 53.5601 42.827 51.3137 41.7244 48.8455C40.6218 46.3772 40.0701 43.8778 40.0693 41.3473C40.0693 40.983 40.1908 40.6794 40.4336 40.4366C40.6765 40.1937 40.98 40.0723 41.3443 40.0723H46.2622C46.5455 40.0723 46.7985 40.1686 47.0211 40.3613C47.2437 40.5539 47.3753 40.7814 47.4158 41.0437L48.205 45.2937C48.2455 45.6175 48.2354 45.8907 48.1747 46.1133C48.114 46.3359 48.0027 46.5282 47.8408 46.6901L44.8961 49.6651C45.3009 50.4139 45.7813 51.1372 46.3375 51.835C46.8936 52.5328 47.506 53.206 48.1747 53.8544C48.8021 54.4818 49.4598 55.0638 50.1479 55.6005C50.836 56.1372 51.5646 56.6278 52.3336 57.0722L55.1872 54.2187C55.3693 54.0365 55.6073 53.9001 55.9012 53.8095C56.195 53.7188 56.4832 53.6933 56.7657 53.733L60.955 54.583C61.2384 54.6639 61.4711 54.8108 61.6532 55.0237C61.8354 55.2367 61.9265 55.4742 61.9265 55.7365V60.6544C61.9265 61.0187 61.805 61.3222 61.5622 61.5651C61.3193 61.808 61.0157 61.9294 60.6515 61.9294ZM43.7425 47.358L45.7461 45.3544L45.23 42.5008H42.5283C42.6295 43.3306 42.7711 44.1502 42.9533 44.9598C43.1354 45.7693 43.3985 46.5687 43.7425 47.358ZM54.6104 58.2258C55.3997 58.5699 56.2043 58.8431 57.0244 59.0455C57.8444 59.2478 58.6689 59.3794 59.4979 59.4401V56.7687L56.6443 56.1919L54.6104 58.2258Z" fill="#1F86D0"/>
</svg>
