<svg width="22" height="17" viewBox="0 0 22 17" fill="none" xmlns="http://www.w3.org/2000/svg">
<path d="M4.92105 4.47368C4.92105 4.12119 4.99048 3.77214 5.12538 3.44648C5.26027 3.12082 5.45799 2.82491 5.70724 2.57566C5.95649 2.32641 6.2524 2.12869 6.57806 1.9938C6.90372 1.8589 7.25277 1.78947 7.60526 1.78947C7.95776 1.78947 8.3068 1.8589 8.63247 1.9938C8.95813 2.12869 9.25404 2.32641 9.50329 2.57566C9.75254 2.82491 9.95026 3.12082 10.0852 3.44648C10.22 3.77214 10.2895 4.12119 10.2895 4.47368C10.2895 5.18558 10.0067 5.86832 9.50329 6.37171C8.9999 6.87509 8.31716 7.15789 7.60526 7.15789C6.89337 7.15789 6.21063 6.87509 5.70724 6.37171C5.20385 5.86832 4.92105 5.18558 4.92105 4.47368ZM7.60526 0C6.41877 0 5.28087 0.471333 4.44189 1.31031C3.60291 2.14929 3.13158 3.28719 3.13158 4.47368C3.13158 5.66018 3.60291 6.79808 4.44189 7.63706C5.28087 8.47604 6.41877 8.94737 7.60526 8.94737C8.79176 8.94737 9.92966 8.47604 10.7686 7.63706C11.6076 6.79808 12.0789 5.66018 12.0789 4.47368C12.0789 3.28719 11.6076 2.14929 10.7686 1.31031C9.92966 0.471333 8.79176 0 7.60526 0ZM13.8684 0H12.9737V1.78947H13.8684C14.2209 1.78947 14.57 1.8589 14.8956 1.9938C15.2213 2.12869 15.5172 2.32641 15.7664 2.57566C16.0157 2.82491 16.2134 3.12082 16.3483 3.44648C16.4832 3.77214 16.5526 4.12119 16.5526 4.47368C16.5526 4.82618 16.4832 5.17522 16.3483 5.50089C16.2134 5.82655 16.0157 6.12246 15.7664 6.37171C15.5172 6.62096 15.2213 6.81868 14.8956 6.95357C14.57 7.08847 14.2209 7.15789 13.8684 7.15789H12.9737V8.94737H13.8684C15.0549 8.94737 16.1928 8.47604 17.0318 7.63706C17.8708 6.79808 18.3421 5.66018 18.3421 4.47368C18.3421 3.28719 17.8708 2.14929 17.0318 1.31031C16.1928 0.471333 15.0549 0 13.8684 0ZM0 15.2105C0 14.024 0.471333 12.8861 1.31031 12.0472C2.14929 11.2082 3.28719 10.7368 4.47368 10.7368H10.7368C11.9233 10.7368 13.0612 11.2082 13.9002 12.0472C14.7392 12.8861 15.2105 14.024 15.2105 15.2105V17H13.4211V15.2105C13.4211 14.4986 13.1383 13.8159 12.6349 13.3125C12.1315 12.8091 11.4487 12.5263 10.7368 12.5263H4.47368C3.76179 12.5263 3.07905 12.8091 2.57566 13.3125C2.07227 13.8159 1.78947 14.4986 1.78947 15.2105V17H0V15.2105ZM21.4737 15.2105C21.4737 14.623 21.358 14.0413 21.1331 13.4985C20.9083 12.9557 20.5788 12.4626 20.1634 12.0472C19.748 11.6317 19.2548 11.3022 18.712 11.0774C18.1692 10.8526 17.5875 10.7368 17 10.7368H16.1053V12.5263H17C17.7119 12.5263 18.3946 12.8091 18.898 13.3125C19.4014 13.8159 19.6842 14.4986 19.6842 15.2105V17H21.4737V15.2105Z" fill="#1776E0"/>
</svg>
