<svg width="24" height="25" viewBox="0 0 24 25" fill="none" xmlns="http://www.w3.org/2000/svg">
<path d="M17 22.5C16.1667 22.5 15.4583 22.2083 14.875 21.625C14.2917 21.0417 14 20.3333 14 19.5C14 19.4 14.025 19.1667 14.075 18.8L7.05 14.7C6.78333 14.95 6.475 15.146 6.125 15.288C5.775 15.43 5.4 15.5007 5 15.5C4.16667 15.5 3.45833 15.2083 2.875 14.625C2.29167 14.0417 2 13.3333 2 12.5C2 11.6667 2.29167 10.9583 2.875 10.375C3.45833 9.79167 4.16667 9.5 5 9.5C5.4 9.5 5.775 9.571 6.125 9.713C6.475 9.855 6.78333 10.0507 7.05 10.3L14.075 6.2C14.0417 6.08333 14.021 5.971 14.013 5.863C14.005 5.755 14.0007 5.634 14 5.5C14 4.66667 14.2917 3.95833 14.875 3.375C15.4583 2.79167 16.1667 2.5 17 2.5C17.8333 2.5 18.5417 2.79167 19.125 3.375C19.7083 3.95833 20 4.66667 20 5.5C20 6.33333 19.7083 7.04167 19.125 7.625C18.5417 8.20833 17.8333 8.5 17 8.5C16.6 8.5 16.225 8.429 15.875 8.287C15.525 8.145 15.2167 7.94933 14.95 7.7L7.925 11.8C7.95833 11.9167 7.97933 12.0293 7.988 12.138C7.99667 12.2467 8.00067 12.3673 8 12.5C7.99933 12.6327 7.99533 12.7537 7.988 12.863C7.98067 12.9723 7.95967 13.0847 7.925 13.2L14.95 17.3C15.2167 17.05 15.525 16.8543 15.875 16.713C16.225 16.5717 16.6 16.5007 17 16.5C17.8333 16.5 18.5417 16.7917 19.125 17.375C19.7083 17.9583 20 18.6667 20 19.5C20 20.3333 19.7083 21.0417 19.125 21.625C18.5417 22.2083 17.8333 22.5 17 22.5ZM17 20.5C17.2833 20.5 17.521 20.4043 17.713 20.213C17.905 20.0217 18.0007 19.784 18 19.5C17.9993 19.216 17.9033 18.9787 17.712 18.788C17.5207 18.5973 17.2833 18.5013 17 18.5C16.7167 18.4987 16.4793 18.5947 16.288 18.788C16.0967 18.9813 16.0007 19.2187 16 19.5C15.9993 19.7813 16.0953 20.019 16.288 20.213C16.4807 20.407 16.718 20.5027 17 20.5ZM5 13.5C5.28333 13.5 5.521 13.404 5.713 13.212C5.905 13.02 6.00067 12.7827 6 12.5C5.99933 12.2173 5.90333 11.98 5.712 11.788C5.52067 11.596 5.28333 11.5 5 11.5C4.71667 11.5 4.47933 11.596 4.288 11.788C4.09667 11.98 4.00067 12.2173 4 12.5C3.99933 12.7827 4.09533 13.0203 4.288 13.213C4.48067 13.4057 4.718 13.5013 5 13.5ZM17 6.5C17.2833 6.5 17.521 6.404 17.713 6.212C17.905 6.02 18.0007 5.78267 18 5.5C17.9993 5.21733 17.9033 4.98 17.712 4.788C17.5207 4.596 17.2833 4.5 17 4.5C16.7167 4.5 16.4793 4.596 16.288 4.788C16.0967 4.98 16.0007 5.21733 16 5.5C15.9993 5.78267 16.0953 6.02033 16.288 6.213C16.4807 6.40567 16.718 6.50133 17 6.5Z" fill="black"/>
</svg>
