<svg width="24" height="24" viewBox="0 0 24 24" fill="none" xmlns="http://www.w3.org/2000/svg">
<path d="M18.9782 0C21.0902 0 22.8002 1.74 22.8002 3.882C22.8002 6.024 21.0914 7.7628 18.9782 7.7628C18.4373 7.76205 17.9028 7.64558 17.4106 7.42122C16.9184 7.19686 16.4799 6.8698 16.1246 6.462L8.58379 10.59C8.75179 11.0268 8.84299 11.502 8.84299 12C8.84299 12.6504 8.68699 13.2624 8.40739 13.8012L15.617 18.2712C15.9402 17.6593 16.4237 17.1467 17.0157 16.7884C17.6078 16.4301 18.2862 16.2396 18.9782 16.2372C21.0902 16.2372 22.8002 17.9772 22.8002 20.118C22.8002 22.2588 21.0914 24 18.9782 24C16.8662 24 15.1574 22.26 15.1574 20.118L15.161 19.9524L7.325 15.0972C6.66496 15.6065 5.85467 15.8825 5.021 15.882C2.9102 15.882 1.2002 14.142 1.2002 12C1.2002 9.858 2.909 8.118 5.0222 8.118C6.04459 8.118 6.97339 8.526 7.65859 9.1896L15.317 4.998C15.2108 4.63552 15.1571 4.25971 15.1574 3.882C15.1562 1.74 16.8662 0 18.9782 0ZM18.9782 17.9112C17.7878 17.9112 16.8182 18.8976 16.8182 20.1192C16.8182 21.3396 17.7878 22.326 18.9782 22.326C20.1698 22.326 21.1382 21.3396 21.1382 20.118C21.1382 18.8976 20.1698 17.9112 18.9782 17.9112ZM5.0222 9.7932C3.8306 9.7932 2.8622 10.7796 2.8622 12C2.8622 13.2204 3.8306 14.208 5.0222 14.208C6.21259 14.208 7.1822 13.2204 7.1822 12C7.1822 10.7796 6.21259 9.792 5.0222 9.792M18.9782 1.6728C17.7878 1.6728 16.8182 2.6592 16.8182 3.8808C16.8182 5.1012 17.7878 6.0876 18.9782 6.0876C20.1698 6.0876 21.1382 5.1012 21.1382 3.8796C21.1382 2.6592 20.1698 1.6728 18.9782 1.6728Z" fill="#0071C4"/>
</svg>
